<svg style="overflow: hidden; position: relative;" xmlns="http://www.w3.org/2000/svg" xmlns:xlink="http://www.w3.org/1999/xlink" width="600" version="1.1" height="350"><defs><linearGradient x1 = "0" y1 = "1" x2 = "6.123031769111886e-17" y2 = "0" gradientTransform ="matrix(1,0,0,1,0,0)" id = "90-rgba_203_203_203_0.5_:0-rgba_233_233_233_0.5_:100"><stop offset="0%" stop-color="#cbcbcb" stop-opacity="0.5" /><stop offset="100%" stop-color="#e9e9e9" stop-opacity="0.5" /></linearGradient><clipPath id="1_1_598_348__26"><rect x="1" y="1" width="598" height="348" transform="matrix(1,0,0,1,0,0)"/></clipPath><clipPath id="87_49_454_174__27"><rect x="87" y="49" width="454" height="174" transform="matrix(1,0,0,1,0,0)"/></clipPath><clipPath id="87_49_454_174__28"><rect x="87" y="49" width="454" height="174" transform="matrix(1,0,0,1,0,0)"/></clipPath><clipPath id="83_49_462_174__29"><rect x="83" y="49" width="462" height="174" transform="matrix(1,0,0,1,0,0)"/></clipPath><clipPath id="87_45_454_182__30"><rect x="87" y="45" width="454" height="182" transform="matrix(1,0,0,1,0,0)"/></clipPath><clipPath id="87_49_454_174__31"><rect x="87" y="49" width="454" height="174" transform="matrix(1,0,0,1,0,0)"/></clipPath><clipPath id="87_49_454_174__32"><rect x="87" y="49" width="454" height="174" transform="matrix(1,0,0,1,0,0)"/></clipPath><clipPath id="87_49_454_174__33"><rect x="87" y="49" width="454" height="174" transform="matrix(1,0,0,1,0,0)"/></clipPath><linearGradient x1 = "0" y1 = "1" x2 = "0.577350269189626" y2 = "0" gradientTransform ="matrix(1,0,0,1,0,0)" id = "60-rgba_175_216_248_0.6_-rgba_0_0_51_0.6_-rgba_0_0_255_0.6_"><stop offset="0%" stop-color="#afd8f8" stop-opacity="0.6" /><stop offset="50%" stop-color="#000033" stop-opacity="0.6" /><stop offset="100%" stop-color="#0000ff" stop-opacity="0.6" /></linearGradient><linearGradient x1 = "0" y1 = "1" x2 = "0.577350269189626" y2 = "0" gradientTransform ="matrix(1,0,0,1,0,0)" id = "60-rgba_246_189_15_0.6_-rgba_0_0_51_0.6_-rgba_0_0_255_0.6_"><stop offset="0%" stop-color="#f6bd0f" stop-opacity="0.6" /><stop offset="50%" stop-color="#000033" stop-opacity="0.6" /><stop offset="100%" stop-color="#0000ff" stop-opacity="0.6" /></linearGradient><linearGradient x1 = "0" y1 = "1" x2 = "0.577350269189626" y2 = "0" gradientTransform ="matrix(1,0,0,1,0,0)" id = "60-rgba_139_186_0_0.6_-rgba_0_0_51_0.6_-rgba_0_0_255_0.6_"><stop offset="0%" stop-color="#8bba00" stop-opacity="0.6" /><stop offset="50%" stop-color="#000033" stop-opacity="0.6" /><stop offset="100%" stop-color="#0000ff" stop-opacity="0.6" /></linearGradient><linearGradient x1 = "0" y1 = "1" x2 = "0.577350269189626" y2 = "0" gradientTransform ="matrix(1,0,0,1,0,0)" id = "60-rgba_255_142_70_0.6_-rgba_0_0_51_0.6_-rgba_0_0_255_0.6_"><stop offset="0%" stop-color="#ff8e46" stop-opacity="0.6" /><stop offset="50%" stop-color="#000033" stop-opacity="0.6" /><stop offset="100%" stop-color="#0000ff" stop-opacity="0.6" /></linearGradient><linearGradient x1 = "0" y1 = "1" x2 = "0.577350269189626" y2 = "0" gradientTransform ="matrix(1,0,0,1,0,0)" id = "60-rgba_0_142_142_0.6_-rgba_0_0_51_0.6_-rgba_0_0_255_0.6_"><stop offset="0%" stop-color="#008e8e" stop-opacity="0.6" /><stop offset="50%" stop-color="#000033" stop-opacity="0.6" /><stop offset="100%" stop-color="#0000ff" stop-opacity="0.6" /></linearGradient><linearGradient x1 = "0" y1 = "1" x2 = "0.577350269189626" y2 = "0" gradientTransform ="matrix(1,0,0,1,0,0)" id = "60-rgba_214_70_70_0.6_-rgba_0_0_51_0.6_-rgba_0_0_255_0.6_"><stop offset="0%" stop-color="#d64646" stop-opacity="0.6" /><stop offset="50%" stop-color="#000033" stop-opacity="0.6" /><stop offset="100%" stop-color="#0000ff" stop-opacity="0.6" /></linearGradient><linearGradient x1 = "0" y1 = "1" x2 = "0.577350269189626" y2 = "0" gradientTransform ="matrix(1,0,0,1,0,0)" id = "60-rgba_142_70_142_0.6_-rgba_0_0_51_0.6_-rgba_0_0_255_0.6_"><stop offset="0%" stop-color="#8e468e" stop-opacity="0.6" /><stop offset="50%" stop-color="#000033" stop-opacity="0.6" /><stop offset="100%" stop-color="#0000ff" stop-opacity="0.6" /></linearGradient><linearGradient x1 = "0" y1 = "1" x2 = "0.577350269189626" y2 = "0" gradientTransform ="matrix(1,0,0,1,0,0)" id = "60-rgba_88_133_38_0.6_-rgba_0_0_51_0.6_-rgba_0_0_255_0.6_"><stop offset="0%" stop-color="#588526" stop-opacity="0.6" /><stop offset="50%" stop-color="#000033" stop-opacity="0.6" /><stop offset="100%" stop-color="#0000ff" stop-opacity="0.6" /></linearGradient><linearGradient x1 = "0" y1 = "1" x2 = "0.577350269189626" y2 = "0" gradientTransform ="matrix(1,0,0,1,0,0)" id = "60-rgba_179_170_0_0.6_-rgba_0_0_51_0.6_-rgba_0_0_255_0.6_"><stop offset="0%" stop-color="#b3aa00" stop-opacity="0.6" /><stop offset="50%" stop-color="#000033" stop-opacity="0.6" /><stop offset="100%" stop-color="#0000ff" stop-opacity="0.6" /></linearGradient><linearGradient x1 = "0" y1 = "1" x2 = "0.577350269189626" y2 = "0" gradientTransform ="matrix(1,0,0,1,0,0)" id = "60-rgba_0_142_214_0.6_-rgba_0_0_51_0.6_-rgba_0_0_255_0.6_"><stop offset="0%" stop-color="#008ed6" stop-opacity="0.6" /><stop offset="50%" stop-color="#000033" stop-opacity="0.6" /><stop offset="100%" stop-color="#0000ff" stop-opacity="0.6" /></linearGradient><linearGradient x1 = "0" y1 = "1" x2 = "0.577350269189626" y2 = "0" gradientTransform ="matrix(1,0,0,1,0,0)" id = "60-rgba_157_8_13_0.6_-rgba_0_0_51_0.6_-rgba_0_0_255_0.6_"><stop offset="0%" stop-color="#9d080d" stop-opacity="0.6" /><stop offset="50%" stop-color="#000033" stop-opacity="0.6" /><stop offset="100%" stop-color="#0000ff" stop-opacity="0.6" /></linearGradient><linearGradient x1 = "0" y1 = "1" x2 = "0.577350269189626" y2 = "0" gradientTransform ="matrix(1,0,0,1,0,0)" id = "60-rgba_161_134_190_0.6_-rgba_0_0_51_0.6_-rgba_0_0_255_0.6_"><stop offset="0%" stop-color="#a186be" stop-opacity="0.6" /><stop offset="50%" stop-color="#000033" stop-opacity="0.6" /><stop offset="100%" stop-color="#0000ff" stop-opacity="0.6" /></linearGradient><clipPath id="83_49_462_174__34"><rect x="83" y="49" width="462" height="174" transform="matrix(1,0,0,1,0,0)"/></clipPath><clipPath id="87_45_454_182__35"><rect x="87" y="45" width="454" height="182" transform="matrix(1,0,0,1,0,0)"/></clipPath><clipPath id="87_49_454_174__36"><rect x="87" y="49" width="454" height="174" transform="matrix(1,0,0,1,0,0)"/></clipPath><clipPath id="87_49_454_174__37"><rect x="87" y="49" width="454" height="174" transform="matrix(1,0,0,1,0,0)"/></clipPath><clipPath id="87_0_454_223__38"><rect x="87" y="0" width="454" height="223" transform="matrix(1,0,0,1,0,0)"/></clipPath></defs><g transform="matrix(1,0,0,1,0,0)" style=""><g transform="matrix(1,0,0,1,0,0)" style=""><rect transform="matrix(1,0,0,1,0,0)" style="" x="1" y="1" width="598" height="348" stroke="none" r="0" d="M1 1LNaN 1LNaN NaNLNaN NaNZ" stroke-linecap="round" fill="url(#90-rgba_203_203_203_0.5_:0-rgba_233_233_233_0.5_:100)"></rect><rect transform="matrix(1,0,0,1,0,0)" style="" x="0.5" y="0.5" width="599" height="349" stroke="#767575" stroke-opacity="0.5" stroke-width="1" stroke-dasharray="none" fill="none" r="0" d="M0.5 0.5LNaN 0.5LNaN NaNLNaN NaNZ" stroke-linecap="round"></rect><rect x="0.5" y="0.5" opacity="1" stroke-opacity="1" fill="#cccccc" stroke-width="0" r="0" height="0.5" width="0.5" d="M 0 0 L 1 1" /></g><g transform="matrix(1,0,0,1,0,0)" style=""><rect transform="matrix(1,0,0,1,0,0)" style="" x="87" y="49" width="454" height="174" r="0" stroke-width="0" stroke="none" fill="#ffffff" fill-opacity="1" d="M87 49L541 49L541 223L87 223Z" stroke-linecap="round"></rect></g><g transform="matrix(1,0,0,1,0,0)" style=""><g transform="matrix(1,0,0,1,0,0)" style=""><g transform="matrix(1,0,0,1,0,0)" style="" clip-path="url(#87_49_454_174__27)"></g><g transform="matrix(1,0,0,1,0,0)" style="" clip-path="url(#87_49_454_174__28)"><rect transform="matrix(1,0,0,1,0,0)" style="" x="87" y="136" width="454" height="43.5" r="0" fill="#0000ff" fill-opacity="0.1" stroke="#000000" d="M87 136L541 136L541 179.5L87 179.5Z" stroke-linecap="round" stroke-width="0"></rect><rect opacity="1" stroke-opacity="1" fill="#cccccc" stroke-width="0" r="0" height="0.5" width="0.5" d="M 0 0 L 1 1" /><rect transform="matrix(1,0,0,1,0,0)" style="" x="87" y="49" width="454" height="43.5" r="0" fill="#0000ff" fill-opacity="0.1" stroke="#000000" d="M87 49L541 49L541 92.5L87 92.5Z" stroke-linecap="round" stroke-width="0"></rect><rect x="87" y="49" opacity="1" stroke-opacity="1" fill="#cccccc" stroke-width="0" r="0" height="0.5" width="0.5" d="M 0 0 L 1 1" /></g></g><g transform="matrix(1,0,0,1,0,0)" style=""><g transform="matrix(1,0,0,1,0,0)" style="" clip-path="url(#83_49_462_174__29)"></g><g transform="matrix(1,0,0,1,0,0)" style="" clip-path="url(#87_45_454_182__30)"><path transform="matrix(1,0,0,1,0,0)" style="" d="M87 223L541 223" fill="none" stroke="#cc0000" stroke-opacity="0.85" stroke-linecap="round" stroke-width="4" stroke-dasharray="5,3"></path><path opacity="1" stroke-opacity="1" fill="#cccccc" stroke-width="0" r="0" height="0.5" width="0.5" d="M 0 0 L 1 1" /><path transform="matrix(1,0,0,1,0,0)" style="" d="M87 180L541 180" fill="none" stroke="#cc0000" stroke-opacity="0.85" stroke-linecap="round" stroke-width="4" stroke-dasharray="5,3"></path><path opacity="1" stroke-opacity="1" fill="#cccccc" stroke-width="0" r="0" height="0.5" width="0.5" d="M 0 0 L 1 1" /><path transform="matrix(1,0,0,1,0,0)" style="" d="M87 136L541 136" fill="none" stroke="#cc0000" stroke-opacity="0.85" stroke-linecap="round" stroke-width="4" stroke-dasharray="5,3"></path><path opacity="1" stroke-opacity="1" fill="#cccccc" stroke-width="0" r="0" height="0.5" width="0.5" d="M 0 0 L 1 1" /><path transform="matrix(1,0,0,1,0,0)" style="" d="M87 93L541 93" fill="none" stroke="#cc0000" stroke-opacity="0.85" stroke-linecap="round" stroke-width="4" stroke-dasharray="5,3"></path><path opacity="1" stroke-opacity="1" fill="#cccccc" stroke-width="0" r="0" height="0.5" width="0.5" d="M 0 0 L 1 1" /><path transform="matrix(1,0,0,1,0,0)" style="" d="M87 49L541 49" fill="none" stroke="#cc0000" stroke-opacity="0.85" stroke-linecap="round" stroke-width="4" stroke-dasharray="5,3"></path><path opacity="1" stroke-opacity="1" fill="#cccccc" stroke-width="0" r="0" height="0.5" width="0.5" d="M 0 0 L 1 1" /></g></g><g transform="matrix(1,0,0,1,0,0)" style=""><g transform="matrix(1,0,0,1,0,0)" style="" clip-path="url(#87_49_454_174__31)"></g><g transform="matrix(1,0,0,1,0,0)" style="" clip-path="url(#87_49_454_174__32)"></g></g><g transform="matrix(1,0,0,1,0,0)" style=""><g transform="matrix(1,0,0,1,0,0)" style=""><rect transform="matrix(1,0,0,1,0,0)" style="" x="275.86" y="255" width="76.27999999999997" height="30" r="3" fill="#37f8f9" fill-opacity="0.8" stroke="#ff0000" stroke-opacity="0.8" d="M278.86 255L349.14 255A3 3 0 0 1 352.14 258L352.14 282A3 3 0 0 1 349.14 285L278.86 285A3 3 0 0 1 275.86 282L275.86 258A3 3 0 0 1 278.86 255Z" stroke-linecap="round" stroke-width="3" stroke-dasharray="5,2" rx="3" ry="3"></rect><rect x="275.86" y="255" opacity="1" stroke-opacity="1" fill="#cccccc" stroke-width="0" r="0" height="0.5" width="0.5" d="M 0 0 L 1 1" /><text transform="matrix(1,0,0,1,0,0)" style="fill:#770000;  font-family:Verdana,sans; font-size:20px; font-weight:bold; " x="314" y="270" text-anchor="middle" font-style="italic"><tspan dy="5">Month</tspan></text></g><g transform="matrix(1,0,0,1,0,0)" style="font-family:Verdana,sans; font-size:10px; font-weight:normal; " font-style="normal"><rect transform="matrix(1,0,0,1,0,0)" style="" x="13" y="84.52000000000001" width="30" height="102.96000000000001" r="3" fill="#37f8f9" fill-opacity="0.8" stroke="#ff0000" stroke-opacity="0.8" d="M16 84.52000000000001L40 84.52000000000001A3 3 0 0 1 43 87.52000000000001L43 184.48000000000002A3 3 0 0 1 40 187.48000000000002L16 187.48000000000002A3 3 0 0 1 13 184.48000000000002L13 87.52000000000001A3 3 0 0 1 16 84.52000000000001Z" stroke-linecap="round" stroke-width="3" stroke-dasharray="5,2" rx="3" ry="3"></rect><rect opacity="1" stroke-opacity="1" fill="#cccccc" stroke-width="0" r="0" height="0.5" width="0.5" d="M 0 0 L 1 1" /><text transform="matrix(0,-1,1,0,-108,164)" style="fill:#770000;  font-family:Verdana,sans; font-size:20px; font-weight:bold; " x="28" y="136" text-anchor="middle" font-style="italic"><tspan dy="5">Revenue</tspan></text><text transform="matrix(1,0,0,1,0,0)" style="fill:#555555;  font-size:10px; " x="80" y="223" text-anchor="end"><tspan dy="2.5">$0</tspan></text><text transform="matrix(1,0,0,1,0,0)" style="fill:#555555;  font-size:10px; " x="80" y="179.5" text-anchor="end"><tspan dy="2.5">$250K</tspan></text><text transform="matrix(1,0,0,1,0,0)" style="fill:#555555;  font-size:10px; " x="80" y="136" text-anchor="end"><tspan dy="2.5">$500K</tspan></text><text transform="matrix(1,0,0,1,0,0)" style="fill:#555555;  font-size:10px; " x="80" y="92.5" text-anchor="end"><tspan dy="2.5">$750K</tspan></text><text transform="matrix(1,0,0,1,0,0)" style="fill:#555555;  font-size:10px; " x="80" y="49" text-anchor="end"><tspan dy="2.5">$1M</tspan></text></g></g><g transform="matrix(1,0,0,1,0,0)" style=""><g transform="matrix(1,0,0,1,0,0)" style=""><rect transform="matrix(1,0,0,1,0,0)" style="" x="89.04551424266668" y="225" width="24.067304847999992" height="26.75759156739997" r="5" fill="#00ff00" fill-opacity="0.6" stroke="#cc0000" stroke-opacity="0.9" d="M94.04551424266668 225L108.11281909066667 225A5 5 0 0 1 113.11281909066667 230L113.11281909066667 246.75759156739997A5 5 0 0 1 108.11281909066667 251.75759156739997L94.04551424266668 251.75759156739997A5 5 0 0 1 89.04551424266668 246.75759156739997L89.04551424266668 230A5 5 0 0 1 94.04551424266668 225Z" stroke-linecap="round" stroke-width="2" stroke-dasharray="6,3" rx="5" ry="5"></rect><rect x="89.04551424266668" y="225" opacity="1" stroke-opacity="1" fill="#cccccc" stroke-width="0" r="0" height="0.5" width="0.5" d="M 0 0 L 1 1" /><text transform="matrix(0.5,-0.866,0.866,0.5,-146.2275,206.7265)" style="fill:#cc0000;  font-family:verdana; font-size:10px; font-weight:bold; " x="105.91666666666667" y="230" text-anchor="end" opacity="1" font-style="italic"><tspan dy="2.5">Jan</tspan></text><rect transform="matrix(1,0,0,1,0,0)" style="" x="126.48884757599998" y="225" width="24.457304848000007" height="27.43309138251999" r="5" fill="#00ff00" fill-opacity="0.6" stroke="#cc0000" stroke-opacity="0.9" d="M131.48884757599998 225L145.946152424 225A5 5 0 0 1 150.946152424 230L150.946152424 247.43309138252A5 5 0 0 1 145.946152424 252.43309138252L131.48884757599998 252.43309138252A5 5 0 0 1 126.48884757599998 247.43309138252L126.48884757599998 230A5 5 0 0 1 131.48884757599998 225Z" stroke-linecap="round" stroke-width="2" stroke-dasharray="6,3" rx="5" ry="5"></rect><rect opacity="1" stroke-opacity="1" fill="#cccccc" stroke-width="0" r="0" height="0.5" width="0.5" d="M 0 0 L 1 1" /><text transform="matrix(0.5,-0.866,0.866,0.5,-127.3108,239.4912)" style="fill:#cc0000;  font-family:verdana; font-size:10px; font-weight:bold; " x="143.75" y="230" text-anchor="end" opacity="1" font-style="italic"><tspan dy="2.5">Feb</tspan></text><rect transform="matrix(1,0,0,1,0,0)" style="" x="163.82218090933335" y="224.99999999999997" width="24.957304848000035" height="28.29911678651999" r="5" fill="#00ff00" fill-opacity="0.6" stroke="#cc0000" stroke-opacity="0.9" d="M168.82218090933335 224.99999999999997L183.7794857573334 224.99999999999997A5 5 0 0 1 188.7794857573334 229.99999999999997L188.7794857573334 248.29911678651996A5 5 0 0 1 183.7794857573334 253.29911678651996L168.82218090933335 253.29911678651996A5 5 0 0 1 163.82218090933335 248.29911678651996L163.82218090933335 229.99999999999997A5 5 0 0 1 168.82218090933335 224.99999999999997Z" stroke-linecap="round" stroke-width="2" stroke-dasharray="6,3" rx="5" ry="5"></rect><rect x="163.82218090933335" y="224.99999999999997" opacity="1" stroke-opacity="1" fill="#cccccc" stroke-width="0" r="0" height="0.5" width="0.5" d="M 0 0 L 1 1" /><text transform="matrix(0.5,-0.866,0.866,0.5,-108.3942,272.2558)" style="fill:#cc0000;  font-family:verdana; font-size:10px; font-weight:bold; " x="181.58333333333334" y="230" text-anchor="end" opacity="1" font-style="italic"><tspan dy="2.5">Mar</tspan></text><rect transform="matrix(1,0,0,1,0,0)" style="" x="202.36051424266668" y="225" width="24.252304847999994" height="27.07802096688002" r="5" fill="#00ff00" fill-opacity="0.6" stroke="#cc0000" stroke-opacity="0.9" d="M207.36051424266668 225L221.61281909066668 225A5 5 0 0 1 226.61281909066668 230L226.61281909066668 247.07802096688002A5 5 0 0 1 221.61281909066668 252.07802096688002L207.36051424266668 252.07802096688002A5 5 0 0 1 202.36051424266668 247.07802096688002L202.36051424266668 230A5 5 0 0 1 207.36051424266668 225Z" stroke-linecap="round" stroke-width="2" stroke-dasharray="6,3" rx="5" ry="5"></rect><rect opacity="1" stroke-opacity="1" fill="#cccccc" stroke-width="0" r="0" height="0.5" width="0.5" d="M 0 0 L 1 1" /><text transform="matrix(0.5,-0.866,0.866,0.5,-89.4775,305.0204)" style="fill:#cc0000;  font-family:verdana; font-size:10px; font-weight:bold; " x="219.41666666666668" y="230" text-anchor="end" opacity="1" font-style="italic"><tspan dy="2.5">Apr</tspan></text><rect transform="matrix(1,0,0,1,0,0)" style="" x="238.71884757599997" y="225.00000000000003" width="25.727304848000017" height="29.63279590868001" r="5" fill="#00ff00" fill-opacity="0.6" stroke="#cc0000" stroke-opacity="0.9" d="M243.71884757599997 225.00000000000003L259.446152424 225.00000000000003A5 5 0 0 1 264.446152424 230.00000000000003L264.446152424 249.63279590868004A5 5 0 0 1 259.446152424 254.63279590868004L243.71884757599997 254.63279590868004A5 5 0 0 1 238.71884757599997 249.63279590868004L238.71884757599997 230.00000000000003A5 5 0 0 1 243.71884757599997 225.00000000000003Z" stroke-linecap="round" stroke-width="2" stroke-dasharray="6,3" rx="5" ry="5"></rect><rect x="238.71884757599997" y="225.00000000000003" opacity="1" stroke-opacity="1" fill="#cccccc" stroke-width="0" r="0" height="0.5" width="0.5" d="M 0 0 L 1 1" /><text transform="matrix(0.5,-0.866,0.866,0.5,-70.5608,337.785)" style="fill:#cc0000;  font-family:verdana; font-size:10px; font-weight:bold; " x="257.25" y="230" text-anchor="end" opacity="1" font-style="italic"><tspan dy="2.5">May</tspan></text><rect transform="matrix(1,0,0,1,0,0)" style="" x="277.99218090933345" y="224.99999999999994" width="24.287304847999962" height="27.13864274516004" r="5" fill="#00ff00" fill-opacity="0.6" stroke="#cc0000" stroke-opacity="0.9" d="M282.99218090933345 224.99999999999994L297.2794857573334 224.99999999999994A5 5 0 0 1 302.2794857573334 229.99999999999994L302.2794857573334 247.13864274515998A5 5 0 0 1 297.2794857573334 252.13864274515998L282.99218090933345 252.13864274515998A5 5 0 0 1 277.99218090933345 247.13864274515998L277.99218090933345 229.99999999999994A5 5 0 0 1 282.99218090933345 224.99999999999994Z" stroke-linecap="round" stroke-width="2" stroke-dasharray="6,3" rx="5" ry="5"></rect><rect opacity="1" stroke-opacity="1" fill="#cccccc" stroke-width="0" r="0" height="0.5" width="0.5" d="M 0 0 L 1 1" /><text transform="matrix(0.5,-0.866,0.866,0.5,-51.6442,370.5497)" style="fill:#cc0000;  font-family:verdana; font-size:10px; font-weight:bold; " x="295.08333333333337" y="230" text-anchor="end" opacity="1" font-style="italic"><tspan dy="2.5">Jun</tspan></text><rect transform="matrix(1,0,0,1,0,0)" style="" x="317.6755142426667" y="225.00000000000006" width="22.437304847999996" height="23.93434875035996" r="5" fill="#00ff00" fill-opacity="0.6" stroke="#cc0000" stroke-opacity="0.9" d="M322.6755142426667 225.00000000000006L335.1128190906667 225.00000000000006A5 5 0 0 1 340.1128190906667 230.00000000000006L340.1128190906667 243.93434875036002A5 5 0 0 1 335.1128190906667 248.93434875036002L322.6755142426667 248.93434875036002A5 5 0 0 1 317.6755142426667 243.93434875036002L317.6755142426667 230.00000000000006A5 5 0 0 1 322.6755142426667 225.00000000000006Z" stroke-linecap="round" stroke-width="2" stroke-dasharray="6,3" rx="5" ry="5"></rect><rect x="317.6755142426667" y="225.00000000000006" opacity="1" stroke-opacity="1" fill="#cccccc" stroke-width="0" r="0" height="0.5" width="0.5" d="M 0 0 L 1 1" /><text transform="matrix(0.5,-0.866,0.866,0.5,-32.7275,403.3143)" style="fill:#cc0000;  font-family:verdana; font-size:10px; font-weight:bold; " x="332.9166666666667" y="230" text-anchor="end" opacity="1" font-style="italic"><tspan dy="2.5">Jul</tspan></text><rect transform="matrix(1,0,0,1,0,0)" style="" x="352.618847576" y="225" width="25.327304847999983" height="28.93997558548" r="5" fill="#00ff00" fill-opacity="0.6" stroke="#cc0000" stroke-opacity="0.9" d="M357.618847576 225L372.946152424 225A5 5 0 0 1 377.946152424 230L377.946152424 248.93997558548A5 5 0 0 1 372.946152424 253.93997558548L357.618847576 253.93997558548A5 5 0 0 1 352.618847576 248.93997558548L352.618847576 230A5 5 0 0 1 357.618847576 225Z" stroke-linecap="round" stroke-width="2" stroke-dasharray="6,3" rx="5" ry="5"></rect><rect opacity="1" stroke-opacity="1" fill="#cccccc" stroke-width="0" r="0" height="0.5" width="0.5" d="M 0 0 L 1 1" /><text transform="matrix(0.5,-0.866,0.866,0.5,-13.8108,436.0789)" style="fill:#cc0000;  font-family:verdana; font-size:10px; font-weight:bold; " x="370.75" y="230" text-anchor="end" opacity="1" font-style="italic"><tspan dy="2.5">Aug</tspan></text><rect transform="matrix(1,0,0,1,0,0)" style="" x="391.02218090933343" y="225" width="24.75730484799999" height="27.95270662492004" r="5" fill="#00ff00" fill-opacity="0.6" stroke="#cc0000" stroke-opacity="0.9" d="M396.02218090933343 225L410.7794857573334 225A5 5 0 0 1 415.7794857573334 230L415.7794857573334 247.95270662492004A5 5 0 0 1 410.7794857573334 252.95270662492004L396.02218090933343 252.95270662492004A5 5 0 0 1 391.02218090933343 247.95270662492004L391.02218090933343 230A5 5 0 0 1 396.02218090933343 225Z" stroke-linecap="round" stroke-width="2" stroke-dasharray="6,3" rx="5" ry="5"></rect><rect x="391.02218090933343" y="225" opacity="1" stroke-opacity="1" fill="#cccccc" stroke-width="0" r="0" height="0.5" width="0.5" d="M 0 0 L 1 1" /><text transform="matrix(0.5,-0.866,0.866,0.5,5.1058,468.8435)" style="fill:#cc0000;  font-family:verdana; font-size:10px; font-weight:bold; " x="408.58333333333337" y="230" text-anchor="end" opacity="1" font-style="italic"><tspan dy="2.5">Sep</tspan></text><rect transform="matrix(1,0,0,1,0,0)" style="" x="429.75051424266666" y="225" width="23.862304848000008" height="26.402521151760027" r="5" fill="#00ff00" fill-opacity="0.6" stroke="#cc0000" stroke-opacity="0.9" d="M434.75051424266666 225L448.6128190906667 225A5 5 0 0 1 453.6128190906667 230L453.6128190906667 246.40252115176003A5 5 0 0 1 448.6128190906667 251.40252115176003L434.75051424266666 251.40252115176003A5 5 0 0 1 429.75051424266666 246.40252115176003L429.75051424266666 230A5 5 0 0 1 434.75051424266666 225Z" stroke-linecap="round" stroke-width="2" stroke-dasharray="6,3" rx="5" ry="5"></rect><rect opacity="1" stroke-opacity="1" fill="#cccccc" stroke-width="0" r="0" height="0.5" width="0.5" d="M 0 0 L 1 1" /><text transform="matrix(0.5,-0.866,0.866,0.5,24.0225,501.6082)" style="fill:#cc0000;  font-family:verdana; font-size:10px; font-weight:bold; " x="446.4166666666667" y="230" text-anchor="end" opacity="1" font-style="italic"><tspan dy="2.5">Oct</tspan></text><rect transform="matrix(1,0,0,1,0,0)" style="" x="466.143847576" y="225.00000000000006" width="25.30230484799995" height="28.896674315279995" r="5" fill="#00ff00" fill-opacity="0.6" stroke="#cc0000" stroke-opacity="0.9" d="M471.143847576 225.00000000000006L486.44615242399993 225.00000000000006A5 5 0 0 1 491.44615242399993 230.00000000000006L491.44615242399993 248.89667431528005A5 5 0 0 1 486.44615242399993 253.89667431528005L471.143847576 253.89667431528005A5 5 0 0 1 466.143847576 248.89667431528005L466.143847576 230.00000000000006A5 5 0 0 1 471.143847576 225.00000000000006Z" stroke-linecap="round" stroke-width="2" stroke-dasharray="6,3" rx="5" ry="5"></rect><rect x="466.143847576" y="225.00000000000006" opacity="1" stroke-opacity="1" fill="#cccccc" stroke-width="0" r="0" height="0.5" width="0.5" d="M 0 0 L 1 1" /><text transform="matrix(0.5,-0.866,0.866,0.5,42.9392,534.3728)" style="fill:#cc0000;  font-family:verdana; font-size:10px; font-weight:bold; " x="484.25" y="230" text-anchor="end" opacity="1" font-style="italic"><tspan dy="2.5">Nov</tspan></text><rect transform="matrix(1,0,0,1,0,0)" style="" x="504.47718090933335" y="225" width="24.802304848000062" height="28.030648911279968" r="5" fill="#00ff00" fill-opacity="0.6" stroke="#cc0000" stroke-opacity="0.9" d="M509.47718090933335 225L524.2794857573334 225A5 5 0 0 1 529.2794857573334 230L529.2794857573334 248.03064891127997A5 5 0 0 1 524.2794857573334 253.03064891127997L509.47718090933335 253.03064891127997A5 5 0 0 1 504.47718090933335 248.03064891127997L504.47718090933335 230A5 5 0 0 1 509.47718090933335 225Z" stroke-linecap="round" stroke-width="2" stroke-dasharray="6,3" rx="5" ry="5"></rect><rect opacity="1" stroke-opacity="1" fill="#cccccc" stroke-width="0" r="0" height="0.5" width="0.5" d="M 0 0 L 1 1" /><text transform="matrix(0.5,-0.866,0.866,0.5,61.8558,567.1374)" style="fill:#cc0000;  font-family:verdana; font-size:10px; font-weight:bold; " x="522.0833333333334" y="230" text-anchor="end" opacity="1" font-style="italic"><tspan dy="2.5">Dec</tspan></text></g><g transform="matrix(1,0,0,1,0,0)" style=""></g></g><g transform="matrix(1,0,0,1,0,0)" style=""><path transform="matrix(1,0,0,1,0,0)" style="" d="M84 225.5L541 225.5" stroke="#00ffff" stroke-opacity="1" stroke-width="3" fill="none" stroke-linecap="round"></path></g><g transform="matrix(1,0,0,1,0,0)" style=""><path transform="matrix(1,0,0,1,0,0)" style="" d="M86.5 223L86.5 49" stroke="#cc0000" stroke-opacity="1" stroke-width="3" fill="none" stroke-linecap="round"></path></g></g><g transform="matrix(1,0,0,1,0,0)" style=""><g transform="matrix(1,0,0,1,0,0)" style="" clip-path="url(#87_49_454_174__33)"><g transform="matrix(1,0,0,1,0,0)" style=""></g><g transform="matrix(1,0,0,1,0,0)" style=""><rect transform="matrix(1,0,0,1,0,0)" style="" x="90.5" y="149.5" width="31" height="74" r="0" stroke="#0000ff" stroke-opacity="0.6" stroke-width="2" stroke-dasharray="6,3" stroke-linejoin="miter" d="M90.5 149.5L121.5 149.5L121.5 223.5L90.5 223.5Z" stroke-linecap="round" fill="url(#60-rgba_175_216_248_0.6_-rgba_0_0_51_0.6_-rgba_0_0_255_0.6_)"></rect><rect x="90.5" y="149.5" opacity="1" stroke-opacity="1" fill="#cccccc" stroke-width="0" r="0" height="0.5" width="0.5" d="M 0 0 L 1 1" /><rect transform="matrix(1,0,0,1,0,0)" style="" x="128.5" y="64.5" width="30" height="159" r="0" stroke="#0000ff" stroke-opacity="0.6" stroke-width="2" stroke-dasharray="6,3" stroke-linejoin="miter" d="M128.5 64.5L158.5 64.5L158.5 223.5L128.5 223.5Z" stroke-linecap="round" fill="url(#60-rgba_246_189_15_0.6_-rgba_0_0_51_0.6_-rgba_0_0_255_0.6_)"></rect><rect opacity="1" stroke-opacity="1" fill="#cccccc" stroke-width="0" r="0" height="0.5" width="0.5" d="M 0 0 L 1 1" /><rect transform="matrix(1,0,0,1,0,0)" style="" x="166.5" y="97.5" width="30" height="126" r="0" stroke="#0000ff" stroke-opacity="0.6" stroke-width="2" stroke-dasharray="6,3" stroke-linejoin="miter" d="M166.5 97.5L196.5 97.5L196.5 223.5L166.5 223.5Z" stroke-linecap="round" fill="url(#60-rgba_139_186_0_0.6_-rgba_0_0_51_0.6_-rgba_0_0_255_0.6_)"></rect><rect x="166.5" y="97.5" opacity="1" stroke-opacity="1" fill="#cccccc" stroke-width="0" r="0" height="0.5" width="0.5" d="M 0 0 L 1 1" /><rect transform="matrix(1,0,0,1,0,0)" style="" x="204.5" y="127.5" width="30" height="96" r="0" stroke="#0000ff" stroke-opacity="0.6" stroke-width="2" stroke-dasharray="6,3" stroke-linejoin="miter" d="M204.5 127.5L234.5 127.5L234.5 223.5L204.5 223.5Z" stroke-linecap="round" fill="url(#60-rgba_255_142_70_0.6_-rgba_0_0_51_0.6_-rgba_0_0_255_0.6_)"></rect><rect opacity="1" stroke-opacity="1" fill="#cccccc" stroke-width="0" r="0" height="0.5" width="0.5" d="M 0 0 L 1 1" /><rect transform="matrix(1,0,0,1,0,0)" style="" x="242.5" y="82.5" width="30" height="141" r="0" stroke="#0000ff" stroke-opacity="0.6" stroke-width="2" stroke-dasharray="6,3" stroke-linejoin="miter" d="M242.5 82.5L272.5 82.5L272.5 223.5L242.5 223.5Z" stroke-linecap="round" fill="url(#60-rgba_0_142_142_0.6_-rgba_0_0_51_0.6_-rgba_0_0_255_0.6_)"></rect><rect x="242.5" y="82.5" opacity="1" stroke-opacity="1" fill="#cccccc" stroke-width="0" r="0" height="0.5" width="0.5" d="M 0 0 L 1 1" /><rect transform="matrix(1,0,0,1,0,0)" style="" x="279.5" y="134.5" width="31" height="89" r="0" stroke="#0000ff" stroke-opacity="0.6" stroke-width="2" stroke-dasharray="6,3" stroke-linejoin="miter" d="M279.5 134.5L310.5 134.5L310.5 223.5L279.5 223.5Z" stroke-linecap="round" fill="url(#60-rgba_214_70_70_0.6_-rgba_0_0_51_0.6_-rgba_0_0_255_0.6_)"></rect><rect opacity="1" stroke-opacity="1" fill="#cccccc" stroke-width="0" r="0" height="0.5" width="0.5" d="M 0 0 L 1 1" /><rect transform="matrix(1,0,0,1,0,0)" style="" x="317.5" y="104.5" width="31" height="119" r="0" stroke="#0000ff" stroke-opacity="0.6" stroke-width="2" stroke-dasharray="6,3" stroke-linejoin="miter" d="M317.5 104.5L348.5 104.5L348.5 223.5L317.5 223.5Z" stroke-linecap="round" fill="url(#60-rgba_142_70_142_0.6_-rgba_0_0_51_0.6_-rgba_0_0_255_0.6_)"></rect><rect x="317.5" y="104.5" opacity="1" stroke-opacity="1" fill="#cccccc" stroke-width="0" r="0" height="0.5" width="0.5" d="M 0 0 L 1 1" /><rect transform="matrix(1,0,0,1,0,0)" style="" x="355.5" y="115.5" width="30" height="108" r="0" stroke="#0000ff" stroke-opacity="0.6" stroke-width="2" stroke-dasharray="6,3" stroke-linejoin="miter" d="M355.5 115.5L385.5 115.5L385.5 223.5L355.5 223.5Z" stroke-linecap="round" fill="url(#60-rgba_88_133_38_0.6_-rgba_0_0_51_0.6_-rgba_0_0_255_0.6_)"></rect><rect opacity="1" stroke-opacity="1" fill="#cccccc" stroke-width="0" r="0" height="0.5" width="0.5" d="M 0 0 L 1 1" /><rect transform="matrix(1,0,0,1,0,0)" style="" x="393.5" y="116.5" width="30" height="107" r="0" stroke="#0000ff" stroke-opacity="0.6" stroke-width="2" stroke-dasharray="6,3" stroke-linejoin="miter" d="M393.5 116.5L423.5 116.5L423.5 223.5L393.5 223.5Z" stroke-linecap="round" fill="url(#60-rgba_179_170_0_0.6_-rgba_0_0_51_0.6_-rgba_0_0_255_0.6_)"></rect><rect x="393.5" y="116.5" opacity="1" stroke-opacity="1" fill="#cccccc" stroke-width="0" r="0" height="0.5" width="0.5" d="M 0 0 L 1 1" /><rect transform="matrix(1,0,0,1,0,0)" style="" x="431.5" y="137.5" width="30" height="86" r="0" stroke="#0000ff" stroke-opacity="0.6" stroke-width="2" stroke-dasharray="6,3" stroke-linejoin="miter" d="M431.5 137.5L461.5 137.5L461.5 223.5L431.5 223.5Z" stroke-linecap="round" fill="url(#60-rgba_0_142_214_0.6_-rgba_0_0_51_0.6_-rgba_0_0_255_0.6_)"></rect><rect opacity="1" stroke-opacity="1" fill="#cccccc" stroke-width="0" r="0" height="0.5" width="0.5" d="M 0 0 L 1 1" /><rect transform="matrix(1,0,0,1,0,0)" style="" x="469.5" y="130.5" width="30" height="93" r="0" stroke="#0000ff" stroke-opacity="0.6" stroke-width="2" stroke-dasharray="6,3" stroke-linejoin="miter" d="M469.5 130.5L499.5 130.5L499.5 223.5L469.5 223.5Z" stroke-linecap="round" fill="url(#60-rgba_157_8_13_0.6_-rgba_0_0_51_0.6_-rgba_0_0_255_0.6_)"></rect><rect x="469.5" y="130.5" opacity="1" stroke-opacity="1" fill="#cccccc" stroke-width="0" r="0" height="0.5" width="0.5" d="M 0 0 L 1 1" /><rect transform="matrix(1,0,0,1,0,0)" style="" x="506.5" y="165.5" width="31" height="58" r="0" stroke="#0000ff" stroke-opacity="0.6" stroke-width="2" stroke-dasharray="6,3" stroke-linejoin="miter" d="M506.5 165.5L537.5 165.5L537.5 223.5L506.5 223.5Z" stroke-linecap="round" fill="url(#60-rgba_161_134_190_0.6_-rgba_0_0_51_0.6_-rgba_0_0_255_0.6_)"></rect><rect opacity="1" stroke-opacity="1" fill="#cccccc" stroke-width="0" r="0" height="0.5" width="0.5" d="M 0 0 L 1 1" /></g></g><g transform="matrix(1,0,0,1,0,0)" style=""></g><g transform="matrix(1,0,0,1,0,0)" style=""></g></g><g transform="matrix(1,0,0,1,0,0)" style=""><g transform="matrix(1,0,0,1,0,0)" style=""><g transform="matrix(1,0,0,1,0,0)" style="" clip-path="url(#83_49_462_174__34)"></g><g transform="matrix(1,0,0,1,0,0)" style="" clip-path="url(#87_45_454_182__35)"></g></g><g transform="matrix(1,0,0,1,0,0)" style=""><g transform="matrix(1,0,0,1,0,0)" style=""></g><g transform="matrix(1,0,0,1,0,0)" style=""></g><g transform="matrix(1,0,0,1,0,0)" style=""></g><g transform="matrix(1,0,0,1,0,0)" style=""></g></g><g transform="matrix(1,0,0,1,0,0)" style=""><g transform="matrix(1,0,0,1,0,0)" style="" clip-path="url(#87_49_454_174__36)"></g><g transform="matrix(1,0,0,1,0,0)" style=""></g><g transform="matrix(1,0,0,1,0,0)" style="" clip-path="url(#87_49_454_174__37)"><path transform="matrix(1,0,0,1,0,0)" style="" fill="#009933" fill-opacity="0.4" stroke-width="0" d="M87 101.2L541 101.2L541 66.4L87 66.4Z" stroke="#000000" stroke-linecap="round"></path><path opacity="1" stroke-opacity="1" fill="#cccccc" stroke-width="0" r="0" height="0.5" width="0.5" d="M 0 0 L 1 1" /></g><g transform="matrix(1,0,0,1,0,0)" style=""><text transform="matrix(1,0,0,1,0,0)" style="fill:#009933;  font-family:Verdana,sans; font-size:10px; font-weight:normal; " x="548" y="83.80000000000001" text-anchor="start" font-style="normal"><tspan dy="2.5">Target</tspan></text></g></g><g transform="matrix(1,0,0,1,0,0)" style=""><g transform="matrix(1,0,0,1,0,0)" style=""></g><g transform="matrix(1,0,0,1,0,0)" style=""></g></g></g><g transform="matrix(1,0,0,1,0,0)" style="" clip-path="url(#87_0_454_223__38)"><g transform="matrix(1,0,0,1,0,0)" style=""><rect transform="matrix(1,0,0,1,0,0)" style="" x="98.805" y="97.315" width="14.39" height="43.370000000000004" r="5" fill="#ffffff" fill-opacity="0.85" stroke="#000033" stroke-opacity="0.9" d="M103.805 97.315L108.19500000000001 97.315A5 5 0 0 1 113.19500000000001 102.315L113.19500000000001 135.685A5 5 0 0 1 108.19500000000001 140.685L103.805 140.685A5 5 0 0 1 98.805 135.685L98.805 102.315A5 5 0 0 1 103.805 97.315Z" stroke-linecap="round" stroke-width="2" stroke-dasharray="6,3" rx="5" ry="5"></rect><rect x="98.805" y="97.315" opacity="1" stroke-opacity="1" fill="#cccccc" stroke-width="0" r="0" height="0.5" width="0.5" d="M 0 0 L 1 1" /><text transform="matrix(0,-1,1,0,-13,225)" style="fill:#cc0000;  font-size:12px; font-weight:bold; font-family:verdana; " x="106" y="119" text-anchor="middle" font-style="italic"><tspan dy="3">$420K</tspan></text><rect transform="matrix(1,0,0,1,0,0)" style="" x="136.305" y="73.315" width="14.389999999999986" height="43.370000000000004" r="5" fill="#ffffff" fill-opacity="0.85" stroke="#000033" stroke-opacity="0.9" d="M141.305 73.315L145.695 73.315A5 5 0 0 1 150.695 78.315L150.695 111.685A5 5 0 0 1 145.695 116.685L141.305 116.685A5 5 0 0 1 136.305 111.685L136.305 78.315A5 5 0 0 1 141.305 73.315Z" stroke-linecap="round" stroke-width="2" stroke-dasharray="6,3" rx="5" ry="5"></rect><rect opacity="1" stroke-opacity="1" fill="#cccccc" stroke-width="0" r="0" height="0.5" width="0.5" d="M 0 0 L 1 1" /><text transform="matrix(0,-1,1,0,48.5,238.5)" style="fill:#cc0000;  font-size:12px; font-weight:bold; font-family:verdana; " x="143.5" y="95" text-anchor="middle" font-style="italic"><tspan dy="3">$910K</tspan></text><rect transform="matrix(1,0,0,1,0,0)" style="" x="174.305" y="106.315" width="14.389999999999986" height="43.370000000000004" r="5" fill="#ffffff" fill-opacity="0.85" stroke="#000033" stroke-opacity="0.9" d="M179.305 106.315L183.695 106.315A5 5 0 0 1 188.695 111.315L188.695 144.685A5 5 0 0 1 183.695 149.685L179.305 149.685A5 5 0 0 1 174.305 144.685L174.305 111.315A5 5 0 0 1 179.305 106.315Z" stroke-linecap="round" stroke-width="2" stroke-dasharray="6,3" rx="5" ry="5"></rect><rect x="174.305" y="106.315" opacity="1" stroke-opacity="1" fill="#cccccc" stroke-width="0" r="0" height="0.5" width="0.5" d="M 0 0 L 1 1" /><text transform="matrix(0,-1,1,0,53.5,309.5)" style="fill:#cc0000;  font-size:12px; font-weight:bold; font-family:verdana; " x="181.5" y="128" text-anchor="middle" font-style="italic"><tspan dy="3">$720K</tspan></text><rect transform="matrix(1,0,0,1,0,0)" style="" x="212.305" y="75.315" width="14.389999999999986" height="43.370000000000004" r="5" fill="#ffffff" fill-opacity="0.85" stroke="#000033" stroke-opacity="0.9" d="M217.305 75.315L221.695 75.315A5 5 0 0 1 226.695 80.315L226.695 113.685A5 5 0 0 1 221.695 118.685L217.305 118.685A5 5 0 0 1 212.305 113.685L212.305 80.315A5 5 0 0 1 217.305 75.315Z" stroke-linecap="round" stroke-width="2" stroke-dasharray="6,3" rx="5" ry="5"></rect><rect opacity="1" stroke-opacity="1" fill="#cccccc" stroke-width="0" r="0" height="0.5" width="0.5" d="M 0 0 L 1 1" /><text transform="matrix(0,-1,1,0,122.5,316.5)" style="fill:#cc0000;  font-size:12px; font-weight:bold; font-family:verdana; " x="219.5" y="97" text-anchor="middle" font-style="italic"><tspan dy="3">$550K</tspan></text><rect transform="matrix(1,0,0,1,0,0)" style="" x="250.305" y="91.315" width="14.389999999999986" height="43.370000000000004" r="5" fill="#ffffff" fill-opacity="0.85" stroke="#000033" stroke-opacity="0.9" d="M255.305 91.315L259.695 91.315A5 5 0 0 1 264.695 96.315L264.695 129.685A5 5 0 0 1 259.695 134.685L255.305 134.685A5 5 0 0 1 250.305 129.685L250.305 96.315A5 5 0 0 1 255.305 91.315Z" stroke-linecap="round" stroke-width="2" stroke-dasharray="6,3" rx="5" ry="5"></rect><rect x="250.305" y="91.315" opacity="1" stroke-opacity="1" fill="#cccccc" stroke-width="0" r="0" height="0.5" width="0.5" d="M 0 0 L 1 1" /><text transform="matrix(0,-1,1,0,144.5,370.5)" style="fill:#cc0000;  font-size:12px; font-weight:bold; font-family:verdana; " x="257.5" y="113" text-anchor="middle" font-style="italic"><tspan dy="3">$810K</tspan></text><rect transform="matrix(1,0,0,1,0,0)" style="" x="287.805" y="82.315" width="14.389999999999986" height="43.370000000000004" r="5" fill="#ffffff" fill-opacity="0.85" stroke="#000033" stroke-opacity="0.9" d="M292.805 82.315L297.195 82.315A5 5 0 0 1 302.195 87.315L302.195 120.685A5 5 0 0 1 297.195 125.685L292.805 125.685A5 5 0 0 1 287.805 120.685L287.805 87.315A5 5 0 0 1 292.805 82.315Z" stroke-linecap="round" stroke-width="2" stroke-dasharray="6,3" rx="5" ry="5"></rect><rect opacity="1" stroke-opacity="1" fill="#cccccc" stroke-width="0" r="0" height="0.5" width="0.5" d="M 0 0 L 1 1" /><text transform="matrix(0,-1,1,0,191,399)" style="fill:#cc0000;  font-size:12px; font-weight:bold; font-family:verdana; " x="295" y="104" text-anchor="middle" font-style="italic"><tspan dy="3">$510K</tspan></text><rect transform="matrix(1,0,0,1,0,0)" style="" x="325.805" y="52.315" width="14.389999999999986" height="43.370000000000004" r="5" fill="#ffffff" fill-opacity="0.85" stroke="#000033" stroke-opacity="0.9" d="M330.805 52.315L335.195 52.315A5 5 0 0 1 340.195 57.315L340.195 90.685A5 5 0 0 1 335.195 95.685L330.805 95.685A5 5 0 0 1 325.805 90.685L325.805 57.315A5 5 0 0 1 330.805 52.315Z" stroke-linecap="round" stroke-width="2" stroke-dasharray="6,3" rx="5" ry="5"></rect><rect x="325.805" y="52.315" opacity="1" stroke-opacity="1" fill="#cccccc" stroke-width="0" r="0" height="0.5" width="0.5" d="M 0 0 L 1 1" /><text transform="matrix(0,-1,1,0,259,407)" style="fill:#cc0000;  font-size:12px; font-weight:bold; font-family:verdana; " x="333" y="74" text-anchor="middle" font-style="italic"><tspan dy="3">$680K</tspan></text><rect transform="matrix(1,0,0,1,0,0)" style="" x="363.305" y="63.315" width="14.389999999999986" height="43.370000000000004" r="5" fill="#ffffff" fill-opacity="0.85" stroke="#000033" stroke-opacity="0.9" d="M368.305 63.315L372.695 63.315A5 5 0 0 1 377.695 68.315L377.695 101.685A5 5 0 0 1 372.695 106.685L368.305 106.685A5 5 0 0 1 363.305 101.685L363.305 68.315A5 5 0 0 1 368.305 63.315Z" stroke-linecap="round" stroke-width="2" stroke-dasharray="6,3" rx="5" ry="5"></rect><rect opacity="1" stroke-opacity="1" fill="#cccccc" stroke-width="0" r="0" height="0.5" width="0.5" d="M 0 0 L 1 1" /><text transform="matrix(0,-1,1,0,285.5,455.5)" style="fill:#cc0000;  font-size:12px; font-weight:bold; font-family:verdana; " x="370.5" y="85" text-anchor="middle" font-style="italic"><tspan dy="3">$620K</tspan></text><rect transform="matrix(1,0,0,1,0,0)" style="" x="401.305" y="64.315" width="14.389999999999986" height="43.370000000000004" r="5" fill="#ffffff" fill-opacity="0.85" stroke="#000033" stroke-opacity="0.9" d="M406.305 64.315L410.695 64.315A5 5 0 0 1 415.695 69.315L415.695 102.685A5 5 0 0 1 410.695 107.685L406.305 107.685A5 5 0 0 1 401.305 102.685L401.305 69.315A5 5 0 0 1 406.305 64.315Z" stroke-linecap="round" stroke-width="2" stroke-dasharray="6,3" rx="5" ry="5"></rect><rect x="401.305" y="64.315" opacity="1" stroke-opacity="1" fill="#cccccc" stroke-width="0" r="0" height="0.5" width="0.5" d="M 0 0 L 1 1" /><text transform="matrix(0,-1,1,0,322.5,494.5)" style="fill:#cc0000;  font-size:12px; font-weight:bold; font-family:verdana; " x="408.5" y="86" text-anchor="middle" font-style="italic"><tspan dy="3">$610K</tspan></text><rect transform="matrix(1,0,0,1,0,0)" style="" x="439.305" y="85.315" width="14.389999999999986" height="43.370000000000004" r="5" fill="#ffffff" fill-opacity="0.85" stroke="#000033" stroke-opacity="0.9" d="M444.305 85.315L448.695 85.315A5 5 0 0 1 453.695 90.315L453.695 123.685A5 5 0 0 1 448.695 128.685L444.305 128.685A5 5 0 0 1 439.305 123.685L439.305 90.315A5 5 0 0 1 444.305 85.315Z" stroke-linecap="round" stroke-width="2" stroke-dasharray="6,3" rx="5" ry="5"></rect><rect opacity="1" stroke-opacity="1" fill="#cccccc" stroke-width="0" r="0" height="0.5" width="0.5" d="M 0 0 L 1 1" /><text transform="matrix(0,-1,1,0,339.5,553.5)" style="fill:#cc0000;  font-size:12px; font-weight:bold; font-family:verdana; " x="446.5" y="107" text-anchor="middle" font-style="italic"><tspan dy="3">$490K</tspan></text><rect transform="matrix(1,0,0,1,0,0)" style="" x="477.305" y="78.315" width="14.389999999999986" height="43.370000000000004" r="5" fill="#ffffff" fill-opacity="0.85" stroke="#000033" stroke-opacity="0.9" d="M482.305 78.315L486.695 78.315A5 5 0 0 1 491.695 83.315L491.695 116.685A5 5 0 0 1 486.695 121.685L482.305 121.685A5 5 0 0 1 477.305 116.685L477.305 83.315A5 5 0 0 1 482.305 78.315Z" stroke-linecap="round" stroke-width="2" stroke-dasharray="6,3" rx="5" ry="5"></rect><rect x="477.305" y="78.315" opacity="1" stroke-opacity="1" fill="#cccccc" stroke-width="0" r="0" height="0.5" width="0.5" d="M 0 0 L 1 1" /><text transform="matrix(0,-1,1,0,384.5,584.5)" style="fill:#cc0000;  font-size:12px; font-weight:bold; font-family:verdana; " x="484.5" y="100" text-anchor="middle" font-style="italic"><tspan dy="3">$530K</tspan></text><rect transform="matrix(1,0,0,1,0,0)" style="" x="514.8050000000001" y="113.31500000000005" width="14.389999999999872" height="43.370000000000004" r="5" fill="#ffffff" fill-opacity="0.85" stroke="#000033" stroke-opacity="0.9" d="M519.8050000000001 113.31500000000005L524.1949999999999 113.31500000000005A5 5 0 0 1 529.1949999999999 118.31500000000005L529.1949999999999 151.68500000000006A5 5 0 0 1 524.1949999999999 156.68500000000006L519.8050000000001 156.68500000000006A5 5 0 0 1 514.8050000000001 151.68500000000006L514.8050000000001 118.31500000000005A5 5 0 0 1 519.8050000000001 113.31500000000005Z" stroke-linecap="round" stroke-width="2" stroke-dasharray="6,3" rx="5" ry="5"></rect><rect opacity="1" stroke-opacity="1" fill="#cccccc" stroke-width="0" r="0" height="0.5" width="0.5" d="M 0 0 L 1 1" /><text transform="matrix(0,-1,1,0,387,657)" style="fill:#cc0000;  font-size:12px; font-weight:bold; font-family:verdana; " x="522" y="135" text-anchor="middle" font-style="italic"><tspan dy="3">$330K</tspan></text></g></g><g transform="matrix(1,0,0,1,0,0)" style=""></g><g transform="matrix(1,0,0,1,0,0)" style=""><text transform="matrix(1,0,0,1,0,0)" style="fill:#ff0000;  font-family:verdana; font-size:20px; font-weight:normal; " x="590" y="285" text-anchor="end"><tspan dy="17">Monthly Revenue</tspan></text><text transform="matrix(1,0,0,1,0,0)" style="fill:#0000ff;  font-family:verdana; font-size:15px; font-weight:normal; " x="590" y="311" text-anchor="end"><tspan dy="12.75">Current Year</tspan></text></g><g transform="matrix(1,0,0,1,0,0)" style=""></g><g transform="matrix(1,0,0,1,0,0)" style=""><g transform="matrix(1,0,0,1,0,0)" style=""><rect transform="matrix(1,0,0,1,0,0)" style="" x="90.5" y="149.5" width="31" height="74" r="0" stroke="#c0c0c0" stroke-opacity="0.002" stroke-width="2" fill="#c0c0c0" fill-opacity="0.002" d="M90.5 149.5LNaN 149.5LNaN NaNLNaN NaNZ" stroke-linecap="round"></rect><rect x="90.5" y="149.5" opacity="1" stroke-opacity="1" fill="#cccccc" stroke-width="0" r="0" height="0.5" width="0.5" d="M 0 0 L 1 1" /><rect transform="matrix(1,0,0,1,0,0)" style="" x="128.5" y="64.5" width="30" height="159" r="0" stroke="#c0c0c0" stroke-opacity="0.002" stroke-width="2" fill="#c0c0c0" fill-opacity="0.002" d="M128.5 64.5LNaN 64.5LNaN NaNLNaN NaNZ" stroke-linecap="round"></rect><rect opacity="1" stroke-opacity="1" fill="#cccccc" stroke-width="0" r="0" height="0.5" width="0.5" d="M 0 0 L 1 1" /><rect transform="matrix(1,0,0,1,0,0)" style="" x="166.5" y="97.5" width="30" height="126" r="0" stroke="#c0c0c0" stroke-opacity="0.002" stroke-width="2" fill="#c0c0c0" fill-opacity="0.002" d="M166.5 97.5LNaN 97.5LNaN NaNLNaN NaNZ" stroke-linecap="round"></rect><rect x="166.5" y="97.5" opacity="1" stroke-opacity="1" fill="#cccccc" stroke-width="0" r="0" height="0.5" width="0.5" d="M 0 0 L 1 1" /><rect transform="matrix(1,0,0,1,0,0)" style="" x="204.5" y="127.5" width="30" height="96" r="0" stroke="#c0c0c0" stroke-opacity="0.002" stroke-width="2" fill="#c0c0c0" fill-opacity="0.002" d="M204.5 127.5LNaN 127.5LNaN NaNLNaN NaNZ" stroke-linecap="round"></rect><rect opacity="1" stroke-opacity="1" fill="#cccccc" stroke-width="0" r="0" height="0.5" width="0.5" d="M 0 0 L 1 1" /><rect transform="matrix(1,0,0,1,0,0)" style="" x="242.5" y="82.5" width="30" height="141" r="0" stroke="#c0c0c0" stroke-opacity="0.002" stroke-width="2" fill="#c0c0c0" fill-opacity="0.002" d="M242.5 82.5LNaN 82.5LNaN NaNLNaN NaNZ" stroke-linecap="round"></rect><rect x="242.5" y="82.5" opacity="1" stroke-opacity="1" fill="#cccccc" stroke-width="0" r="0" height="0.5" width="0.5" d="M 0 0 L 1 1" /><rect transform="matrix(1,0,0,1,0,0)" style="" x="279.5" y="134.5" width="31" height="89" r="0" stroke="#c0c0c0" stroke-opacity="0.002" stroke-width="2" fill="#c0c0c0" fill-opacity="0.002" d="M279.5 134.5LNaN 134.5LNaN NaNLNaN NaNZ" stroke-linecap="round"></rect><rect opacity="1" stroke-opacity="1" fill="#cccccc" stroke-width="0" r="0" height="0.5" width="0.5" d="M 0 0 L 1 1" /><rect transform="matrix(1,0,0,1,0,0)" style="" x="317.5" y="104.5" width="31" height="119" r="0" stroke="#c0c0c0" stroke-opacity="0.002" stroke-width="2" fill="#c0c0c0" fill-opacity="0.002" d="M317.5 104.5LNaN 104.5LNaN NaNLNaN NaNZ" stroke-linecap="round"></rect><rect x="317.5" y="104.5" opacity="1" stroke-opacity="1" fill="#cccccc" stroke-width="0" r="0" height="0.5" width="0.5" d="M 0 0 L 1 1" /><rect transform="matrix(1,0,0,1,0,0)" style="" x="355.5" y="115.5" width="30" height="108" r="0" stroke="#c0c0c0" stroke-opacity="0.002" stroke-width="2" fill="#c0c0c0" fill-opacity="0.002" d="M355.5 115.5LNaN 115.5LNaN NaNLNaN NaNZ" stroke-linecap="round"></rect><rect opacity="1" stroke-opacity="1" fill="#cccccc" stroke-width="0" r="0" height="0.5" width="0.5" d="M 0 0 L 1 1" /><rect transform="matrix(1,0,0,1,0,0)" style="" x="393.5" y="116.5" width="30" height="107" r="0" stroke="#c0c0c0" stroke-opacity="0.002" stroke-width="2" fill="#c0c0c0" fill-opacity="0.002" d="M393.5 116.5LNaN 116.5LNaN NaNLNaN NaNZ" stroke-linecap="round"></rect><rect x="393.5" y="116.5" opacity="1" stroke-opacity="1" fill="#cccccc" stroke-width="0" r="0" height="0.5" width="0.5" d="M 0 0 L 1 1" /><rect transform="matrix(1,0,0,1,0,0)" style="" x="431.5" y="137.5" width="30" height="86" r="0" stroke="#c0c0c0" stroke-opacity="0.002" stroke-width="2" fill="#c0c0c0" fill-opacity="0.002" d="M431.5 137.5LNaN 137.5LNaN NaNLNaN NaNZ" stroke-linecap="round"></rect><rect opacity="1" stroke-opacity="1" fill="#cccccc" stroke-width="0" r="0" height="0.5" width="0.5" d="M 0 0 L 1 1" /><rect transform="matrix(1,0,0,1,0,0)" style="" x="469.5" y="130.5" width="30" height="93" r="0" stroke="#c0c0c0" stroke-opacity="0.002" stroke-width="2" fill="#c0c0c0" fill-opacity="0.002" d="M469.5 130.5LNaN 130.5LNaN NaNLNaN NaNZ" stroke-linecap="round"></rect><rect x="469.5" y="130.5" opacity="1" stroke-opacity="1" fill="#cccccc" stroke-width="0" r="0" height="0.5" width="0.5" d="M 0 0 L 1 1" /><rect transform="matrix(1,0,0,1,0,0)" style="" x="506.5" y="165.5" width="31" height="58" r="0" stroke="#c0c0c0" stroke-opacity="0.002" stroke-width="2" fill="#c0c0c0" fill-opacity="0.002" d="M506.5 165.5LNaN 165.5LNaN NaNLNaN NaNZ" stroke-linecap="round"></rect><rect opacity="1" stroke-opacity="1" fill="#cccccc" stroke-width="0" r="0" height="0.5" width="0.5" d="M 0 0 L 1 1" /></g></g></g><g transform="matrix(1,0,0,1,0,0)" style=""></g><text transform="matrix(1,0,0,1,0,0)" style="fill:#000000;  font-size:9px; font-family:Verdana,sans; cursor:pointer; _cursor:hand; " x="6" y="346" text-anchor="start"><tspan dy="-3.1499999999999994">FusionCharts XT Trial</tspan></text></svg>